<?xml version="1.0" encoding="utf-8"?>
<!-- Generator: Adobe Illustrator 25.0.0, SVG Export Plug-In . SVG Version: 6.00 Build 0)  -->
<svg version="1.1" id="Camada_1" xmlns="http://www.w3.org/2000/svg" xmlns:xlink="http://www.w3.org/1999/xlink" x="0px" y="0px"
	 viewBox="0 0 2500 813.32" style="enable-background:new 0 0 2500 813.32;" xml:space="preserve">
<style type="text/css">
	.st0{fill:#4B0000;}
	.st1{fill:#D70000;}
	.st2{fill:#FF8C8C;}
	.st3{fill:#B2B2B2;}
	.st4{fill:#8F0000;}
	.st5{fill:#FF3030;}
	.st6{fill:#FFFFFF;}
</style>
<g>
	<g>
		<path class="st0" d="M673.42,655.17c0,10.45,2.6,15.67,7.83,15.67c2.85,0,16.61-6.16,41.3-18.51l13.53,26.35
			c-42.73,38.45-80.47,57.68-113.23,57.68c-20.42,0-35.96-6.89-46.64-20.65c-10.68-13.76-16.02-30.86-16.02-51.27
			c0-20.41,11.5-76.31,34.54-167.7c23.02-91.39,35.72-154.17,38.1-188.36c0-7.59-2.49-16.73-7.48-27.42
			c-4.99-10.68-10.09-19.34-15.31-25.99l-7.12-9.97l2.14-10.68c27.06-8.07,71.68-12.11,133.88-12.11c5.7,10.93,8.55,26.7,8.55,47.36
			c0,20.65-12.35,80.36-37.03,179.1C685.76,547.41,673.42,616.25,673.42,655.17z"/>
		<path class="st1" d="M59.2,539.6c-9.04-5.24-14.86-5.6-17.48-1.08c-1.43,2.47-2.99,17.46-4.68,45.02l-29.58-1.5
			C-4.4,525.8-2.12,483.5,14.3,455.16c10.23-17.67,23.99-27.67,41.25-30.01c17.26-2.34,34.73,1.6,52.4,11.84
			c17.66,10.23,60.26,48.2,127.8,113.95c67.54,65.73,115.5,108.19,143.89,127.38c6.57,3.8,15.73,6.23,27.47,7.27
			c11.74,1.04,21.79,0.96,30.17-0.22l12.2-1.16l8.17,7.2c-6.58,27.46-25.45,68.09-56.63,121.91c-12.31-0.55-27.39-5.99-45.26-16.34
			c-17.87-10.35-63.34-50.97-136.41-121.82C146.27,604.29,92.88,559.11,59.2,539.6z"/>
		<path class="st2" d="M467.09,66.05c9.06-5.2,12.3-10.05,9.69-14.59c-1.42-2.47-13.61-11.34-36.61-26.62L456.3,0
			c54.61,17.93,90.07,41.11,106.37,69.52c10.16,17.71,11.92,34.62,5.29,50.74s-18.8,29.25-36.51,39.41
			c-17.7,10.15-71.92,27.98-162.66,53.47c-90.73,25.49-151.51,45.71-182.35,60.65c-6.58,3.78-13.28,10.49-20.06,20.12
			c-6.79,9.64-11.75,18.38-14.93,26.21l-5.11,11.14l-10.33,3.46c-20.46-19.46-46.16-56.16-77.1-110.11
			c6.64-10.38,18.91-20.7,36.83-30.97c17.91-10.27,75.85-29.26,173.79-56.97C367.47,108.96,433.33,85.41,467.09,66.05z"/>
	</g>
	<g>
		<path class="st0" d="M796.61,729.94h-13.53c0-22.31,6.76-65.04,20.29-128.18c13.53-63.13,20.29-98.98,20.29-107.53
			c0-15.67-6.65-32.28-19.94-49.85l-6.41-8.55l0.71-9.26c25.64-7.12,66.69-10.68,123.2-10.68c6.17,8.08,9.49,22.79,9.97,44.15
			c41.3-31.8,76.2-47.71,104.68-47.71c17.09,0,30.73,5.94,40.95,17.8c10.2,11.87,15.31,26.7,15.31,44.51
			c0,17.8-5.46,48.55-16.38,92.22c-10.93,43.68-16.38,72.99-16.38,87.95s1.89,22.43,5.7,22.43c2.85,0,12.82-4.51,29.91-13.53
			l8.55-4.27l12.82,24.92c-4.27,3.81-9.97,8.54-17.09,14.24c-7.12,5.7-20.29,13.42-39.52,23.14c-19.23,9.72-36.44,14.6-51.63,14.6
			c-34.66,0-51.99-19.69-51.99-59.11c0-16.61,5.34-47.23,16.02-91.86c10.68-44.62,16.02-73.35,16.02-86.17
			c0-12.82-4.04-19.23-12.11-19.23c-13.78,0-30.62,5.94-50.56,17.8c-1.43,8.08-6.18,29.44-14.24,64.09
			c-16.63,74.54-24.92,127.24-24.92,158.09C869.72,726.63,839.81,729.94,796.61,729.94z"/>
		<path class="st0" d="M1285.12,225.76l139.58,4.27l73.35-1.42c1.42,7.12,2.14,16.62,2.14,28.48c0,11.87-1.78,20.42-5.34,25.64
			c-3.56,5.23-9.61,7.83-18.16,7.83c-8.55,0-26.7-1.18-54.48-3.56c-27.77-2.37-48.31-3.56-61.6-3.56l-25.64,1.42
			c-1.9,18.05-13.3,75.73-34.18,173.04c36.07-3.31,66.23-4.98,90.44-4.98c24.21,0,42.96,1.9,56.26,5.7
			c-0.96,19.94-5.23,37.03-12.82,51.27c-20.42-4.27-44.63-6.41-72.64-6.41c-28.02,0-51.75,1.42-71.21,4.27
			c-17.57,85.93-26.35,151.21-26.35,195.83v12.11c-17.09,9.5-53.17,14.24-108.24,14.24h-7.12c0-32.28,11.04-99.45,33.11-201.53
			c22.08-102.07,35.48-175.42,40.23-220.05c0-7.59-2.38-16.73-7.12-27.42c-4.75-10.68-9.74-19.34-14.95-25.99l-7.12-9.97l2.14-10.68
			C1221.03,229.09,1250.94,226.24,1285.12,225.76z"/>
		<path class="st0" d="M1559.29,736.35c-32.76,0-58.39-11.51-76.91-34.54c-18.51-23.02-27.77-55.19-27.77-96.49
			c0-52.7,14.12-98.03,42.37-136.01c28.24-37.98,67.29-56.97,117.14-56.97l25.64,1.42c8.07-4.27,17.09-6.41,27.06-6.41
			c37.5,0,56.26,35.37,56.26,106.11c19.46-0.95,39.17-3.56,59.11-7.83l11.39-2.85l4.27,27.77c-15.67,6.65-36.8,12.58-63.38,17.8
			l-14.24,2.85c-9.02,49.85-27.3,93.18-54.83,129.96C1637.86,717.96,1602.48,736.35,1559.29,736.35z M1597.74,675.11
			c19.94,0,37.85-12.82,53.76-38.45c15.9-25.64,26.94-52.7,33.11-81.18c-50.81,0-76.2-18.98-76.2-56.97
			c0-15.19,3.08-29.43,9.26-42.73l3.56-7.12c-1.9-0.95-4.27-1.42-7.12-1.42c-2.85,0-4.98,0.48-6.41,1.42
			c-11.87,7.6-23.03,25.4-33.47,53.41c-10.45,28.02-15.67,60.06-15.67,96.14C1558.58,649.48,1571.63,675.11,1597.74,675.11z"/>
		<path class="st0" d="M1755.13,729.94h-4.98c-0.96-3.79-1.43-12.46-1.43-25.99c0-13.53,6.41-49.96,19.23-109.31
			c12.82-59.34,19.23-93.29,19.23-101.83c0-14.71-6.65-30.86-19.94-48.42l-6.41-8.55l0.71-9.26c25.64-7.12,66.69-10.68,123.2-10.68
			c5.7,12.35,8.55,29.68,8.55,51.98c5.22-8.55,16.13-19.94,32.76-34.18c16.61-14.24,33.7-21.36,51.27-21.36
			c25.64,0,38.45,22.32,38.45,66.94c-2.38,2.85-5.58,6.53-9.61,11.04c-4.04,4.52-12.11,10.8-24.21,18.87
			c-12.11,8.08-23.86,13.06-35.25,14.96c-0.48,0-4.52-6.41-12.11-19.23c-7.6-12.82-13.3-19.23-17.09-19.23
			c-11.87,4.27-22.32,11.39-31.33,21.36c-21.84,98.27-32.76,161.9-32.76,190.85c0,10.45,0.23,17.8,0.71,22.08
			C1837.49,726.63,1804.5,729.94,1755.13,729.94z"/>
		<path class="st0" d="M2019.32,729.94h-13.53c0-22.31,6.76-65.04,20.3-128.18c13.53-63.13,20.29-98.98,20.29-107.53
			c0-15.67-6.65-32.28-19.94-49.85l-6.41-8.55l0.71-9.26c25.63-7.12,66.69-10.68,123.19-10.68c6.64,9.02,9.97,23.74,9.97,44.15
			c42.73-31.8,76.66-47.71,101.83-47.71c31.8,0,50.56,16.38,56.26,49.14c12.82-10.44,29.55-21.24,50.2-32.4
			c20.65-11.15,39.17-16.73,55.55-16.73c16.38,0,30.02,5.34,40.95,16.02c10.92,10.68,16.38,25.52,16.38,44.51
			c0,18.99-5.23,50.33-15.67,94c-10.45,43.68-15.67,72.99-15.67,87.95s2.14,22.43,6.41,22.43c2.85,0,12.57-4.51,29.2-13.53
			l7.83-4.27l12.82,24.92c-12.35,12.35-29.09,24.1-50.2,35.25c-21.13,11.15-39.77,16.74-55.9,16.74
			c-35.61,0-53.41-20.17-53.41-60.53c0-14.71,5.1-44.26,15.31-88.66c10.2-44.38,15.31-73.35,15.31-86.88
			c0-13.53-4.04-20.29-12.1-20.29c-13.78,0-29.44,5.23-47,15.67c-0.96,9.5-7.48,41.78-19.58,96.85
			c-12.11,55.08-18.16,97.81-18.16,128.18c-13.77,6.18-46.05,9.26-96.85,9.26c-0.96-5.22-1.43-17.8-1.43-37.74
			s5.58-53.88,16.74-101.83c11.15-47.95,16.73-78.33,16.73-91.15c0-12.82-4.52-19.23-13.53-19.23c-14.24,0-29.91,5.7-47,17.09
			c-0.96,4.27-5.7,25.17-14.24,62.67c-17.09,75.02-25.64,128.43-25.64,160.23C2092.42,726.63,2062.51,729.94,2019.32,729.94z"/>
	</g>
</g>
</svg>
