<?xml version="1.0" encoding="utf-8"?>
<!-- Generator: Adobe Illustrator 25.0.0, SVG Export Plug-In . SVG Version: 6.00 Build 0)  -->
<svg version="1.1" id="Camada_1" xmlns="http://www.w3.org/2000/svg" xmlns:xlink="http://www.w3.org/1999/xlink" x="0px" y="0px"
	 viewBox="0 0 2297.63 2500" style="enable-background:new 0 0 2297.63 2500;" xml:space="preserve">
<style type="text/css">
	.st0{fill:#4B0000;}
	.st1{fill:#D70000;}
	.st2{fill:#FF8C8C;}
	.st3{fill:#B2B2B2;}
	.st4{fill:#8F0000;}
	.st5{fill:#FF3030;}
	.st6{fill:#FFFFFF;}
</style>
<g>
	<path class="st0" d="M2069.98,2013.89c0,32.12,8,48.16,24.08,48.16c8.76,0,51.06-18.95,126.96-56.91l41.58,80.99
		c-131.34,118.2-247.35,177.31-348.04,177.31c-62.76,0-110.54-21.17-143.38-63.48c-32.83-42.31-49.25-94.84-49.25-157.6
		c0-62.73,35.36-234.56,106.16-515.49c70.76-280.9,109.79-473.9,117.11-578.97c0-23.33-7.66-51.44-22.98-84.27
		c-15.33-32.83-31.02-59.44-47.06-79.9l-21.89-30.64l6.57-32.83c83.18-24.8,220.33-37.21,411.52-37.21
		c17.51,33.59,26.27,82.09,26.27,145.57c0,63.48-37.96,247.01-113.83,550.52C2107.91,1682.64,2069.98,1894.25,2069.98,2013.89z"/>
	<path class="st1" d="M181.98,1658.64c-27.79-16.1-45.68-17.22-53.74-3.31c-4.39,7.58-9.2,53.68-14.4,138.39l-90.92-4.61
		c-36.45-172.9-29.44-302.9,21.03-390.03c31.46-54.31,73.73-85.04,126.8-92.24s106.76,4.92,161.06,36.38
		c54.28,31.44,185.23,148.17,392.84,350.26c207.59,202.04,355.03,332.55,442.28,391.55c20.18,11.69,48.35,19.16,84.44,22.36
		c36.09,3.2,66.99,2.95,92.73-0.67l37.49-3.58l25.12,22.14c-20.24,84.4-78.24,209.3-174.08,374.74
		c-37.84-1.68-84.2-18.41-139.13-50.23c-54.93-31.82-194.7-156.66-419.3-374.45C449.6,1857.5,285.51,1718.61,181.98,1658.64z"/>
	<path class="st2" d="M1435.76,203.03c27.86-15.98,37.79-30.9,29.8-44.84c-4.36-7.6-41.84-34.87-112.53-81.82L1402.59,0
		c167.88,55.13,276.86,126.36,326.95,213.71c31.22,54.44,36.63,106.43,16.26,155.96s-57.77,89.91-112.22,121.13
		c-54.41,31.2-221.06,86.01-499.99,164.36c-278.88,78.36-465.72,140.52-560.5,186.44c-20.23,11.6-40.81,32.23-61.67,61.86
		c-20.86,29.63-36.13,56.48-45.9,80.57l-15.69,34.23l-31.75,10.64c-62.89-59.82-141.89-172.61-237-338.47
		c20.42-31.9,58.14-63.63,113.21-95.21c55.06-31.58,233.16-89.95,534.19-175.13C1129.54,334.92,1331.97,262.55,1435.76,203.03z"/>
</g>
</svg>
